<svg width="512" height="512" viewBox="0 0 512 512" fill="none" xmlns="http://www.w3.org/2000/svg">
<path d="M306.579 338.249C294.505 350.347 278.419 357.003 261.329 357.003C244.244 357.003 228.158 350.347 216.084 338.249L125.417 247.586C113.323 235.508 106.667 219.426 106.667 202.336C106.667 185.247 113.323 169.165 125.417 157.091C137.491 144.993 153.577 138.337 170.666 138.337C187.752 138.337 203.838 144.993 215.912 157.091L261.329 202.485L386.707 77.1112C345.746 42.1897 292.712 21.0063 234.666 21.0063C105.065 21.0063 0 126.072 0 255.668C0 385.268 105.065 490.333 234.666 490.333C364.262 490.333 469.327 385.268 469.327 255.668C469.327 231.414 465.64 208.032 458.812 186.016L306.579 338.249Z" fill="#F5E530"/>
<path d="M261.329 314.335C255.869 314.335 250.408 312.245 246.248 308.085L155.584 217.418C147.241 209.079 147.241 195.594 155.584 187.255C163.924 178.911 177.404 178.911 185.748 187.255L261.329 262.836L475.581 48.5881C483.921 40.2483 497.401 40.2483 505.745 48.5881C514.085 56.9317 514.085 70.4121 505.745 78.7557L276.411 308.085C272.255 312.245 266.79 314.335 261.329 314.335V314.335Z" fill="#3D8307"/>
</svg>
