<svg width="508" height="508" viewBox="0 0 508 508" fill="none" xmlns="http://www.w3.org/2000/svg">
<g clip-path="url(#clip0)">
<path d="M253.6 507.2C393.659 507.2 507.2 393.659 507.2 253.6C507.2 113.541 393.659 0 253.6 0C113.541 0 0 113.541 0 253.6C0 393.659 113.541 507.2 253.6 507.2Z" fill="#F5E530"/>
<path d="M373.6 309.6C384.8 320.8 384.8 340 373.6 351.2L351.2 373.6C340 384.8 320.8 384.8 309.6 373.6L133.6 197.6C122.4 186.4 122.4 167.2 133.6 156L156.8 132.8C168 121.6 187.2 121.6 198.4 132.8L373.6 309.6Z" fill="#D22727"/>
<path d="M309.6 133.6C320.8 122.4 340 122.4 351.2 133.6L374.4 156.8C385.6 168 385.6 187.2 374.4 198.4L197.6 373.6C186.4 384.8 167.2 384.8 156 373.6L133.6 351.2C122.4 340 122.4 320.8 133.6 309.6L309.6 133.6Z" fill="#D22727"/>
</g>
<defs>
<clipPath id="clip0">
<rect width="507.2" height="507.2" fill="white"/>
</clipPath>
</defs>
</svg>
